<svg xmlns="http://www.w3.org/2000/svg" width="34" height="34" viewBox="0 0 34 34">
    <path fill="#FFDC57" fill-rule="evenodd" d="M3.235 8.476C6.878 3.19 12.671-1.518 19.515.46l-.247-.067c.146.025.303.073.452.139l.208.073c3.706 1.32 7.112 3.169 9.545 6.357 2.349 3.077 3.904 7.034 4.222 10.895.611 7.43-5.84 13.076-12.508 14.958-6.427 1.813-13.858-.136-18.034-5.496-4.493-5.764-3.93-13.021.082-18.844zM16.491 1.63v-.284c-.012 1.028.046 2.048.172 3.068.054.435-.415.817-.814.813-.478-.005-.759-.374-.813-.813-.11-.891-.168-1.782-.173-2.679-5.107.758-9.301 5.436-11.653 9.898-.797 1.512-1.294 3.113-1.5 4.727l3.11-.45c1.026-.148 1.465 1.42.433 1.57-1.217.175-2.435.35-3.652.527-.021 3.772 1.534 7.476 4.555 10.143 2.948 2.602 6.787 3.797 10.617 3.684l.01.73c-.011-1.49-.086-2.977-.225-4.46-.097-1.044 1.53-1.034 1.628 0 .111 1.199.182 2.4.21 3.604 1.653-.21 3.279-.663 4.806-1.352 2.78-1.254 5.44-3.238 7.204-5.749 1.5-2.132 1.885-4.627 1.618-7.114l-2.274.435c-1.026.196-1.46-1.372-.433-1.569l2.448-.467c-.063-.295-.134-.588-.212-.88-.811-3.03-2.25-6.025-4.425-8.314-2.193-2.306-5.079-3.648-8.045-4.67l.014.007-.025-.009c-.878-.253-1.74-.38-2.58-.396zm6.848 5.81L21.07 19.203l-.006.03c.089.313.006.67-.356.887-3.436 2.05-6.856 4.127-10.26 6.23-.648.4-1.315-.26-1.195-.918.57-3.133 1.212-6.25 1.926-9.351l.355-1.52c-.079-.282.004-.619.207-.82.15-.151.334-.223.52-.23l-.37.265 10.253-7.255c.63-.446 1.317.292 1.195.918zm-10.424 8.361l.215-.916c-.579 2.426-1.114 4.861-1.605 7.306l-.354 1.805 1.865-1.145c1.138-.695 2.278-1.387 3.42-2.077l2.145-1.288c-.31-.175-.607-.371-.891-.59l-.095.093c-1.18 1.084-3.173 1.017-3.89-.558-.306-.674-.432-1.525-.289-2.281l-.263-.172-.258-.177zm8.461-6.752l-3.537 2.504-4.06 2.873c.152.106.306.21.463.31.066-.055.138-.104.214-.148l.022-.013c.046-.03.095-.06.146-.087l-.063.041c1.11-.773 2.709-.68 3.542.467l.1.149c.43.692.513 1.54.312 2.317.337.287.705.533 1.098.732l1.023-5.305.74-3.84zm-5.434 6.562l-.095.028c-.035.034-.072.067-.11.1l.038-.045c-.064.08-.148.149-.253.2-.107.066-.217.122-.324.16-.36.355-.216 1.412.043 1.801l.054.069c.447.48 1.16.03 1.445-.397.523-.779.027-2.103-.798-1.916z"/>
</svg>
