<svg xmlns="http://www.w3.org/2000/svg" width="15" height="20" viewBox="0 0 15 20">
    <path fill="#6D7278" d="M14.016.687C9.903-.189 5.259-.233 1.134.59.827.65.7.873.704 1.105c-.004.017-.009.032-.01.05C.07 7.042-.498 12.978.707 18.85c.012.218.142.424.426.495 4.154 1.04 8.409.624 12.622.216.446-.043.632-.46.557-.786.725-5.803 1.034-11.72.131-17.52.023-.249-.101-.5-.428-.569zm-12.175.96c3.66-.676 7.82-.633 11.47.093.834 5.522.516 11.185-.16 16.709-3.778.366-7.6.704-11.33-.149-1.075-5.515-.579-11.124.02-16.652zm5.937 15.575c-.74 0-.74 1.111 0 1.111s.74-1.11 0-1.11zM7.083 2.778c-1.529 0-3.017.126-4.423.374-.294.053-.484.252-.493.512l-.006.033c-.467 3.915-.831 8.407.01 12.06.025.244.207.432.48.492 1.264.281 2.643.418 4.216.418l.8-.011c1.336-.036 2.68-.15 3.988-.263l.028-.002c.206-.018.382-.11.495-.26.1-.132.14-.301.113-.46.295-2.102.88-7.383.092-11.896.01-.236-.134-.493-.49-.56-1.535-.29-3.153-.437-4.81-.437zm-.006 1.17c1.382 0 2.785.114 4.066.33.666 4.09.163 8.92-.115 10.994-1.466.125-2.798.226-4.131.226-1.3 0-2.451-.1-3.51-.302-.73-3.48-.345-7.888.027-10.976 1.162-.18 2.394-.272 3.663-.272z"/>
</svg>
