<svg xmlns="http://www.w3.org/2000/svg" width="71" height="71" viewBox="0 0 71 71">
    <g fill="none" fill-rule="evenodd">
        <path fill="#F37021" d="M18.377.838c5.255-3.786 11.07 12.64 12.09 15.222.099.25.113.475.066.671l-.688-.276c6.497 2.64 13.095 5.008 19.792 7.062 2.417.741 6.3 1.057 8.17 2.951 1.795 1.82 2.126 5.547 2.744 7.936.44 1.699 2.226 5.45.408 6.791-1.803 1.333-5.241-.715-7.058-1.268-5.997-1.834-12.081-3.354-18.055-5.264 1.123 3.767 1.748 7.654 2.367 11.558.578 3.637 1.218 7.11 1.513 10.728l.017.244c1.425.256 2.999.463 3.898 1.637 1.337 1.745 1.881 4.516 2.612 6.551.321.888-.677 1.852-1.561 1.553-2.197-.743-4.35-1.598-6.435-2.617-.999-.488-1.063-.68-1.93-.013-.411.316-.756 1.15-1.042 1.585L33.2 69.06c-.641.975-1.904.69-2.32-.302-.604-1.444-1.924-3.385-1.692-5.02.211-1.49 1.565-2.848 2.298-4.282-.247-.162-.703-1.526-.812-1.74-.383-.76-.787-1.507-1.196-2.251-.88-1.604-1.821-3.127-2.345-4.905-1.338-4.535-2.63-9.16-3.713-13.783l-.174-.759.157.691c-4.355 4.953-8.676 9.937-13.026 14.894-1.155 1.315-3.17 4.838-5.408 3.88-1.858-.795-2.029-4.324-2.474-6.002-.645-2.423-2.212-5.83-1.514-8.362.714-2.59 3.95-4.804 5.687-6.704 4.043-4.426 7.731-9.154 11.44-13.858-.495-3.76-.884-7.54-1.003-11.33-.066-2.109-.83-6.874 1.271-8.389zm1.83 2.402c-.507-.263-.661-.016-.459.741-.107.43-.063.965-.082 1.406-.202 5.138.36 10.316 1.034 15.404.05.375-.055.661-.246.859-.027.043-.058.086-.091.128-3.104 3.933-6.176 7.897-9.454 11.688-1.656 1.915-3.366 3.783-5.127 5.601-1.11 1.148-2.449 2.062-2.298 3.783.107 1.245.57 2.526.88 3.734.342 1.334.694 2.664 1.057 3.992.164.605.239 1.417.506 2.002l.11.208.043.075.005-.047c.016-.09.058-.2.145-.326l.074-.097c1.85-2.23 3.833-4.36 5.74-6.545 3.665-4.197 7.323-8.4 11.009-12.579.745-.844 1.82-.258 2.074.588.107.134.19.305.237.517.667 3.003 1.503 5.955 2.339 8.91.782 2.769 1.24 5.901 2.513 8.47.873 1.763 1.952 3.413 2.807 5.192.153.319.36.695.525 1.09.534.21.914.73.672 1.434-.462 1.34-1.198 2.418-1.825 3.66-.89 1.762-.77 1.02-.06 2.715.58-1.027 1.266-2.097 2.06-3.208.573-.806 1.011-1.502 2.085-1.594 1.198-.101 2.44.807 3.455 1.29 1.05.501 2.083.933 3.095 1.298-.105-.473-.404-1.168-.897-2.083-.94-1.75-2.054-1.678-3.75-2.054-.593-.13-.871-.549-.906-1.004l-.002-.04c-.045-.123-.075-.259-.084-.41-.25-4.07-1.003-7.998-1.647-12.052-.67-4.212-1.398-8.39-2.787-12.413l-.042-.115.007.022c-.163-.211-.245-.467-.258-.727-.465-1.302 1.227-1.953 2.038-1.126 5.175 1.74 10.444 3.138 15.69 4.632 2.56.73 5.266 1.964 7.879 2.41 1.1.186.734.565.67-.5-.035-.568-.3-1.215-.441-1.768-.297-1.177-.604-2.352-.92-3.525-.315-1.18-.543-3.238-1.264-4.25-.81-1.137-2.936-1.361-4.136-1.71-2.596-.757-5.183-1.557-7.753-2.404-5.141-1.694-10.221-3.575-15.242-5.615-.714-.29-.928-1.02-.788-1.622-.167-.133-.307-.315-.4-.55-1.295-3.272-2.748-6.496-4.457-9.586-.598-1.077-1.227-2.182-2.11-3.065-.3-.474-.707-.752-1.223-.834z" transform="rotate(60 43.788 44.101)"/>
        <path fill="#FFCB05" d="M6.893 61.984c-.597-1.488 1.88-2.127 2.47-.659 1.607 4.007 2.822 8.106 3.653 12.328.306 1.559-2.164 2.221-2.47.659-.83-4.222-2.046-8.321-3.653-12.328zm50.785-16.375c-.603-1.473 1.831-2.108 2.426-.654 1.986 4.86 3.59 9.838 4.813 14.934.37 1.545-2.057 2.197-2.426.655-1.223-5.097-2.827-10.073-4.813-14.935zm-42.062 5.7c-.583-1.584 1.917-2.261 2.494-.698l2.748 7.462c.583 1.582-1.918 2.26-2.494.696l-2.748-7.46zm30.697-7.148c-.513-1.586 1.765-2.263 2.272-.695l2.995 9.262c.514 1.586-1.765 2.263-2.273.695l-2.994-9.262z" transform="rotate(60 43.788 44.101)"/>
    </g>
</svg>
