<?xml version="1.0" encoding="UTF-8"?>
<svg width="14px" height="20px" viewBox="0 0 14 20" version="1.1" xmlns="http://www.w3.org/2000/svg" xmlns:xlink="http://www.w3.org/1999/xlink">
    <!-- Generator: sketchtool 63.1 (101010) - https://sketch.com -->
    <title>5BB487B0-3E83-4849-8D45-6809B8EFF5CF</title>
    <desc>Created with sketchtool.</desc>
    <g id="STATIC-PAGES" stroke="none" stroke-width="1" fill="none" fill-rule="evenodd">
        <g id="CONTACT-US-GEN-INQUIRY2" transform="translate(-866.000000, -320.000000)" fill="#6D7278" fill-rule="nonzero">
            <g id="LOCATIONS" transform="translate(862.000000, 257.000000)">
                <path d="M11.1254246,63 C13.6889852,63 15.542964,63.6921693 16.6355105,65.056922 C18.0311999,66.7996359 18.1097625,68.9627691 17.9295676,70.4704074 C17.4488382,74.50008 15.4352158,78.701557 12.6168551,81.6263087 C12.9936139,81.6302522 13.3696981,81.6329689 13.7444332,81.6329689 C14.2061853,81.6329689 14.6683422,81.6298579 15.1300943,81.6218395 L15.1300943,81.6218395 L15.2559885,81.6286424 C15.6963174,81.677809 15.920506,81.9854872 15.9231855,82.2897783 C15.9266032,82.6301449 15.6578624,82.9799759 15.1385487,82.9888706 C14.6736486,82.996889 14.2091534,83 13.7447031,83 C12.1285707,83 10.4876149,82.957498 8.90066801,82.9165734 C8.34483864,82.9021139 7.78923411,82.8876545 7.23331479,82.8749477 C6.71359633,82.8633801 6.44584487,82.5118403 6.45007205,82.1705097 C6.45393947,81.8412287 6.71939746,81.5079165 7.21860959,81.5079165 L7.21860959,81.5079165 L7.24442238,81.5079165 C7.80092631,81.5208424 8.35720539,81.5350828 8.91348447,81.5495422 C9.25017497,81.558437 9.5904181,81.5671126 9.93138075,81.5755692 C7.29110126,78.5446939 5.30904787,74.9940672 4.4376639,71.6891635 C4.05856668,70.2517193 3.65235254,68.1240774 4.49909294,66.2510532 C5.36215746,64.3415738 7.3046822,63.1335089 9.57692709,63.0893419 C9.66920556,63.0482858 9.76553133,63.0278235 9.86374584,63.0278235 L9.86374584,63.0278235 L10.2262941,63.0278235 C10.5235009,63.009552 10.8307361,63 11.1254246,63 Z M11.1297417,64.3973084 C10.9361907,64.3973084 10.7425948,64.4016024 10.5500782,64.4096208 C10.5005212,64.4198739 10.4534826,64.4248689 10.4074783,64.4248689 L10.4074783,64.4248689 L10.1642804,64.4248689 C10.0752398,64.46426 9.97886908,64.4841527 9.87737176,64.4841527 C9.81468356,64.4827067 9.77200701,64.4822686 9.72919556,64.4822686 C7.56474379,64.4822686 5.83344321,65.8427272 5.51865311,67.7902833 C5.28881136,69.2138377 5.55404451,70.8719857 6.32919265,72.8602473 C7.49013854,75.8377102 9.19971861,78.6341234 11.2800764,80.9614809 C13.9070898,78.3760004 15.8736735,74.545912 16.4319762,70.9091859 C16.7719945,68.6934291 16.4884136,67.0452274 15.5893281,66.0101939 C14.6464418,64.9247276 13.1879293,64.3973084 11.1297417,64.3973084 Z M10.9014772,65.2222718 L11.1080287,65.2258702 C11.1367792,65.2244429 11.1803472,65.2240104 11.224048,65.2240104 C12.7038581,65.2240104 14.1887106,65.8169007 15.0067285,66.7344794 C15.6051369,67.4056116 15.8543815,68.235909 15.7279678,69.1357114 C15.4757596,70.9293475 13.5735384,72.4444444 11.5738752,72.4444444 L11.5738752,72.4444444 L11.4386981,72.4420656 L11.4386981,72.4420656 L11.3041071,72.4347561 C9.27728564,72.2888259 7.21211548,70.6303937 7.36834124,68.3946849 C7.50444166,66.4420566 9.02335242,65.1441683 11.1080287,65.2258702 Z M11.2044977,66.7067985 C11.1626104,66.7067985 11.1209443,66.7074906 11.0798532,66.7085718 L11.0798532,66.7085718 L11.0568086,66.7081393 C11.0239003,66.7072743 10.9960345,66.707058 10.9682128,66.707058 C9.49583363,66.707058 8.96912456,67.6633468 8.96730548,68.5582185 C8.96474564,69.730375 9.84477617,70.946475 11.3223305,70.9527465 C12.5929254,70.9527465 14.0555737,70.2092114 14.2244496,69.0082495 C14.2972105,68.4880215 14.1669486,68.0359145 13.836318,67.6652931 C13.2054436,66.9577432 12.0242406,66.7067985 11.2044977,66.7067985 Z" id="Combined-Shape" transform="translate(11.000000, 73.000000) scale(-1, 1) translate(-11.000000, -73.000000) "></path>
            </g>
        </g>
    </g>
</svg>