<?xml version="1.0" encoding="UTF-8"?>
<svg width="85px" height="103px" viewBox="0 0 85 103" version="1.1" xmlns="http://www.w3.org/2000/svg" xmlns:xlink="http://www.w3.org/1999/xlink">
    <!-- Generator: Sketch 63.1 (92452) - https://sketch.com -->
    <title>go-orange-map</title>
    <desc>Created with Sketch.</desc>
    <defs>
        <path d="M29.5742429,13.0551239 C23.1730233,13.0551239 17.9841644,18.2439828 17.9841644,24.6452025 C17.9841644,31.0464221 23.1730233,36.235281 29.5742429,36.235281 C35.9750871,36.235281 41.1643215,31.0464221 41.1643215,24.6452025 C41.1643215,18.2439828 35.9750871,13.0551239 29.5742429,13.0551239 M29.5742429,4.26325641e-14 C45.9078847,4.26325641e-14 59.1484859,13.2413521 59.1484859,29.5742429 C59.1484859,45.9078847 31.1654429,77.6992196 29.5742429,77.6992196 C27.9837939,77.6992196 -1.79056769e-13,45.9078847 -1.79056769e-13,29.5742429 C-1.79056769e-13,13.2413521 13.2406012,4.26325641e-14 29.5742429,4.26325641e-14" id="path-1"></path>
        <filter x="-34.7%" y="-23.8%" width="169.3%" height="152.8%" filterUnits="objectBoundingBox" id="filter-2">
            <feOffset dx="0" dy="2" in="SourceAlpha" result="shadowOffsetOuter1"></feOffset>
            <feGaussianBlur stdDeviation="6.5" in="shadowOffsetOuter1" result="shadowBlurOuter1"></feGaussianBlur>
            <feColorMatrix values="0 0 0 0 0.499886775   0 0 0 0 0.448029705   0 0 0 0 0.303570723  0 0 0 1 0" type="matrix" in="shadowBlurOuter1"></feColorMatrix>
        </filter>
        <path d="M6.27769325,3.18653006 C6.27769325,3.18653006 -0.725388957,8.20004908 0.433280982,16.1763239 L0.433280982,16.1763239 C1.46166626,23.2090675 10.1280368,26.6858282 16.9493963,23.1805325 L16.9493963,23.1805325 C16.9133521,24.084265 17.093573,24.6628491 17.3199755,24.9403141 L17.3199755,24.9403141 C18.0078184,25.7989914 19.9395607,25.6435509 20.8451706,24.0932761 L20.8451706,24.0932761 C21.7522822,22.5433767 23.1298454,16.5551632 22.3609031,14.7364344 L22.3609031,14.7364344 C22.2291166,14.1623558 21.8525301,13.5319583 20.8692,13.3036785 L20.8692,13.3036785 C20.8692,13.3036785 17.5369914,12.188562 13.3851534,13.6776368 L13.3851534,13.6776368 C13.3851534,13.6776368 12.1848074,13.9344515 11.9816834,15.2943681 L11.9816834,15.2943681 C11.6520294,17.5200957 13.8180589,17.2351215 14.3530896,17.0774282 L14.3530896,17.0774282 C14.3530896,17.0774282 18.4050552,15.9976049 17.5602699,18.5668785 L17.5602699,18.5668785 C17.1401301,19.8348074 14.2945178,20.6657006 11.845016,20.7242724 L11.845016,20.7242724 C7.94773988,20.8136319 5.72351411,17.7551337 6.37268466,13.4377178 L6.37268466,13.4377178 C7.01847607,9.12743558 9.57160491,4.11879755 13.5143117,3.28302331 L13.5143117,3.28302331 C17.455892,2.44537178 19.7747337,4.39851534 20.9795853,5.50912638 L20.9795853,5.50912638 C22.1851877,6.62161472 23.2537472,6.25028466 23.9029178,5.18397791 L23.9029178,5.18397791 C24.5547166,4.11879755 24.1372049,3.00330552 21.9584098,2.03161472 L21.9584098,2.03161472 C20.7175141,1.47668466 18.3847804,0.263197546 15.1460613,0.263197546 L15.1460613,0.263197546 C12.6852957,0.263197546 9.70188957,0.964181595 6.27769325,3.18653006 L6.27769325,3.18653006 Z M27.1322503,2.84073129 C22.6845497,6.1181227 21.2112442,11.7207387 23.8383387,15.3458061 L23.8383387,15.3458061 C26.4676859,18.9806356 32.200962,19.2629816 36.6456589,15.9882184 L36.6456589,15.9882184 C41.088854,12.705946 42.566665,7.10445644 39.9373178,3.47600982 L39.9373178,3.47600982 C38.5364761,1.54051288 36.2536785,0.556807362 33.7527387,0.556807362 L33.7527387,0.556807362 C31.5638061,0.556807362 29.2074184,1.31110675 27.1322503,2.84073129 L27.1322503,2.84073129 Z M29.1649914,15.5410454 C26.9137325,14.5622209 26.316,10.9649374 27.8200933,7.51333252 L27.8200933,7.51333252 C29.3298184,4.05722209 32.3680417,2.04287853 34.6140442,3.02958773 L34.6140442,3.02958773 C36.8619239,4.00991411 37.4600319,7.60269202 35.9585669,11.0591779 L35.9585669,11.0591779 C34.7079092,13.9175558 32.4044613,15.7888491 30.3758503,15.7888491 L30.3758503,15.7888491 C29.9568368,15.7888491 29.5490871,15.7085006 29.1649914,15.5410454 L29.1649914,15.5410454 Z" id="path-3"></path>
    </defs>
    <g id="HOME-&amp;-HOTELS" stroke="none" stroke-width="1" fill="none" fill-rule="evenodd">
        <g id="HOME-CUBAO-HOVER" transform="translate(-910.000000, -841.000000)">
            <g id="go-orange-map" transform="translate(923.000000, 852.000000)">
                <g id="go-orange">
                    <g id="Group-10">
                        <g id="Fill-2192">
                            <use fill="black" fill-opacity="1" filter="url(#filter-2)" xlink:href="#path-1"></use>
                            <use fill="#F37021" fill-rule="evenodd" xlink:href="#path-1"></use>
                        </g>
                        <path d="M29.6008255,2.65315141 C44.5760525,2.65315141 56.7150537,14.7929036 56.7150537,29.7673796 C56.7150537,44.7426066 31.0594881,73.8892005 29.6008255,73.8892005 C28.1425384,73.8892005 2.4865973,44.7426066 2.4865973,29.7673796 C2.4865973,14.7929036 14.6255985,2.65315141 29.6008255,2.65315141 Z" id="Stroke-2194" stroke="#FFCB05"></path>
                        <path d="M54.0766579,30.0573475 C54.0766579,43.5896812 43.106464,54.5598751 29.5741303,54.5598751 C16.0417966,54.5598751 5.0716027,43.5896812 5.0716027,30.0573475 C5.0716027,16.5250137 16.0417966,5.55481988 29.5741303,5.55481988 C43.106464,5.55481988 54.0766579,16.5250137 54.0766579,30.0573475" id="Fill-2196" fill="#FFFFFF"></path>
                        <g id="Group-2201" transform="translate(8.172941, 17.615012)">
                            <mask id="mask-4" fill="white">
                                <use xlink:href="#path-3"></use>
                            </mask>
                            <use id="Clip-2200" fill="#F37021" xlink:href="#path-3"></use>
                        </g>
                    </g>
                </g>
            </g>
        </g>
    </g>
</svg>