<svg xmlns="http://www.w3.org/2000/svg" width="21" height="25" viewBox="0 0 21 25">
    <path fill="#F26F21" d="M8.614 17.087c1.078 0 2.11-.201 3.062-.564 1.294 2.739 2.74 5.402 4.078 8.12.19.387.581.395.862.21 1.375-.204 2.599-.718 3.683-1.622l.01-.011c.36-.118.624-.5.347-.897-1.872-2.689-3.984-5.202-5.777-7.944 1.459-1.546 2.356-3.626 2.356-5.914 0-1.426-.594-3.013-.85-3.63C15.129 1.807 12.253 0 8.693 0 7.395 0 6.044.248 4.788.716 1.39 1.983-.044 5.741.04 8.903c.12 4.436 4.045 8.184 8.574 8.184zm10.578 5.387c-.748.569-1.617.932-2.543 1.088-.448-.901-.907-1.797-1.366-2.691.573-.454 1.167-.873 1.794-1.25.714.944 1.428 1.889 2.115 2.853zm-2.902-3.896c-.558.342-1.092.718-1.61 1.117-.63-1.231-1.252-2.467-1.845-3.717.38-.214.741-.456 1.082-.723.752 1.135 1.555 2.234 2.373 3.323zM5.334 2.18c1.084-.404 2.245-.617 3.359-.617 2.95 0 5.227 1.41 6.248 3.87.458 1.103.73 2.236.73 3.03 0 3.893-3.165 7.059-7.057 7.059-3.703 0-6.914-3.051-7.01-6.662-.07-2.606 1.056-5.682 3.73-6.68z"/>
</svg>
