<?xml version="1.0" encoding="UTF-8"?>
<svg width="50px" height="66px" viewBox="0 0 50 66" version="1.1" xmlns="http://www.w3.org/2000/svg" xmlns:xlink="http://www.w3.org/1999/xlink">
    <!-- Generator: Sketch 63.1 (92452) - https://sketch.com -->
    <title>Go-Green</title>
    <desc>Created with Sketch.</desc>
    <defs>
        <path d="M5.23141104,2.65544172 C5.23141104,2.65544172 -0.604490798,6.83337423 0.361067485,13.4802699 L0.361067485,13.4802699 C1.21805521,19.3408896 8.44003067,22.2381902 14.1244969,19.3171104 L14.1244969,19.3171104 C14.0944601,20.0702209 14.2446442,20.5523742 14.4333129,20.7835951 L14.4333129,20.7835951 C15.0065153,21.4991595 16.6163006,21.3696258 17.3709755,20.0777301 L17.3709755,20.0777301 C18.1269018,18.7861472 19.2748712,13.7959693 18.6340859,12.280362 L18.6340859,12.280362 C18.5242638,11.8019632 18.2104417,11.2766319 17.391,11.0863988 L17.391,11.0863988 C17.391,11.0863988 14.6141595,10.157135 11.1542945,11.3980307 L11.1542945,11.3980307 C11.1542945,11.3980307 10.1540061,11.6120429 9.9847362,12.7453067 L9.9847362,12.7453067 C9.71002454,14.6000798 11.5150491,14.3626012 11.960908,14.2311902 L11.960908,14.2311902 C11.960908,14.2311902 15.337546,13.3313374 14.6335583,15.4723988 L14.6335583,15.4723988 C14.2834417,16.5290061 11.9120982,17.2214172 9.87084663,17.270227 L9.87084663,17.270227 C6.62311656,17.3446933 4.76959509,14.7959448 5.31057055,11.1980982 L5.31057055,11.1980982 C5.84873006,7.60619632 7.97633742,3.43233129 11.2619264,2.73585276 L11.2619264,2.73585276 C14.5465767,2.03780982 16.4789448,3.66542945 17.4829877,4.59093865 L17.4829877,4.59093865 C18.4876564,5.51801227 19.3781227,5.20857055 19.9190982,4.3199816 L19.9190982,4.3199816 C20.4622638,3.43233129 20.1143374,2.5027546 18.2986748,1.69301227 L18.2986748,1.69301227 C17.2645951,1.23057055 15.3206503,0.219331288 12.6217178,0.219331288 L12.6217178,0.219331288 C10.5710798,0.219331288 8.08490798,0.803484663 5.23141104,2.65544172 L5.23141104,2.65544172 Z M22.6102086,2.36727607 C18.9037914,5.09843558 17.6760368,9.76728221 19.8652822,12.7881718 L19.8652822,12.7881718 C22.0564049,15.8171963 26.834135,16.0524847 30.5380491,13.3235153 L30.5380491,13.3235153 C34.2407117,10.5882883 35.4722209,5.92038037 33.2810982,2.89667485 L33.2810982,2.89667485 C32.1137301,1.28376074 30.2113988,0.464006135 28.1272822,0.464006135 L28.1272822,0.464006135 C26.3031718,0.464006135 24.3395153,1.09258896 22.6102086,2.36727607 L22.6102086,2.36727607 Z M24.3041595,12.9508712 C22.4281104,12.135184 21.93,9.13744785 23.183411,6.26111043 L23.183411,6.26111043 C24.4415153,3.3810184 26.9733681,1.70239877 28.8450368,2.52465644 L28.8450368,2.52465644 C30.7182699,3.34159509 31.2166933,6.33557669 29.9654724,9.2159816 L29.9654724,9.2159816 C28.9232577,11.5979632 27.0037178,13.1573742 25.3132086,13.1573742 L25.3132086,13.1573742 C24.9640307,13.1573742 24.6242393,13.0904172 24.3041595,12.9508712 L24.3041595,12.9508712 Z" id="path-1"></path>
    </defs>
    <g id="Symbols" stroke="none" stroke-width="1" fill="none" fill-rule="evenodd">
        <g id="Map" transform="translate(-237.000000, -69.000000)">
            <g id="Group-2269" transform="translate(0.000000, 9.000000)">
                <g id="Go-Green" transform="translate(237.238296, 60.799351)">
                    <g id="Group-10">
                        <path d="M24.6452025,10.8792699 C19.3108528,10.8792699 14.9868037,15.203319 14.9868037,20.5376687 C14.9868037,25.8720184 19.3108528,30.1960675 24.6452025,30.1960675 C29.9792393,30.1960675 34.3036012,25.8720184 34.3036012,20.5376687 C34.3036012,15.203319 29.9792393,10.8792699 24.6452025,10.8792699 M24.6452025,3.55271368e-14 C38.2565706,3.55271368e-14 49.2904049,11.0344601 49.2904049,24.6452025 C49.2904049,38.2565706 25.9712025,64.7493497 24.6452025,64.7493497 C23.3198282,64.7493497 -1.49213975e-13,38.2565706 -1.49213975e-13,24.6452025 C-1.49213975e-13,11.0344601 11.0338344,3.55271368e-14 24.6452025,3.55271368e-14" id="Fill-2192" fill="#00A84F"></path>
                        <path d="M24.6673546,2.21095951 C37.1467104,2.21095951 47.2625448,12.3274196 47.2625448,24.8061497 C47.2625448,37.2855055 25.8829067,61.5743337 24.6673546,61.5743337 C23.4521153,61.5743337 2.07216442,37.2855055 2.07216442,24.8061497 C2.07216442,12.3274196 12.1879988,2.21095951 24.6673546,2.21095951 Z" id="Stroke-2194" stroke="#FFCB05"></path>
                        <path d="M45.0638816,25.0477896 C45.0638816,36.3247344 35.9220534,45.4665626 24.6451086,45.4665626 C13.3681638,45.4665626 4.22633558,36.3247344 4.22633558,25.0477896 C4.22633558,13.7708448 13.3681638,4.62901656 24.6451086,4.62901656 C35.9220534,4.62901656 45.0638816,13.7708448 45.0638816,25.0477896" id="Fill-2196" fill="#FFFFFF"></path>
                        <g id="Group-2201" transform="translate(6.810784, 14.679177)">
                            <mask id="mask-2" fill="white">
                                <use xlink:href="#path-1"></use>
                            </mask>
                            <g id="Clip-2200"></g>
                            <polygon id="Fill-2199" fill="#00A84F" mask="url(#mask-2)" points="-6.85152147 28.3212699 41.4714479 28.3212699 41.4714479 -6.88562577 -6.85152147 -6.88562577"></polygon>
                        </g>
                    </g>
                </g>
            </g>
        </g>
    </g>
</svg>